<?xml version="1.0" encoding="UTF-8" standalone="no"?>
<svg
   xmlns:dc="http://purl.org/dc/elements/1.1/"
   xmlns:cc="http://creativecommons.org/ns#"
   xmlns:rdf="http://www.w3.org/1999/02/22-rdf-syntax-ns#"
   xmlns:svg="http://www.w3.org/2000/svg"
   xmlns="http://www.w3.org/2000/svg"
   xmlns:sodipodi="http://sodipodi.sourceforge.net/DTD/sodipodi-0.dtd"
   xmlns:inkscape="http://www.inkscape.org/namespaces/inkscape"
   version="1.1"
   width="512"
   height="512"
   viewBox="0 0 100 100"
   id="svg2"
   inkscape:version="0.91 r13725"
   sodipodi:docname="ray_icon.svg"
   inkscape:export-filename="D:\Git\notr\Resources\icon_white.png"
   inkscape:export-xdpi="90"
   inkscape:export-ydpi="90">
  <metadata
     id="metadata56">
    <rdf:RDF>
      <cc:Work
         rdf:about="">
        <dc:format>image/svg+xml</dc:format>
        <dc:type
           rdf:resource="http://purl.org/dc/dcmitype/StillImage" />
      </cc:Work>
    </rdf:RDF>
  </metadata>
  <sodipodi:namedview
     pagecolor="#ffffff"
     bordercolor="#666666"
     borderopacity="1"
     objecttolerance="10"
     gridtolerance="10"
     guidetolerance="10"
     inkscape:pageopacity="0"
     inkscape:pageshadow="2"
     inkscape:window-width="1920"
     inkscape:window-height="1137"
     id="namedview54"
     showgrid="false"
     inkscape:zoom="0.65186406"
     inkscape:cx="81.883165"
     inkscape:cy="242.0589"
     inkscape:window-x="-8"
     inkscape:window-y="-8"
     inkscape:window-maximized="1"
     inkscape:current-layer="svg2" />
  <defs
     id="defs4">
    <linearGradient
       id="Gradient_2"
       gradientUnits="userSpaceOnUse"
       x1="50"
       y1="62"
       x2="50"
       y2="0"
       spreadMethod="pad">
      <stop
         offset="0%"
         stop-color="#FFFFFF"
         stop-opacity="0.2"
         id="stop7" />
      <stop
         offset="100%"
         stop-color="#FFFFFF"
         stop-opacity="0.7"
         id="stop9" />
    </linearGradient>
    <linearGradient
       id="Gradient_3"
       gradientUnits="userSpaceOnUse"
       x1="60"
       y1="100"
       x2="60"
       y2="0"
       spreadMethod="pad">
      <stop
         offset="0%"
         stop-color="#FFFFFF"
         stop-opacity="0"
         id="stop12" />
      <stop
         offset="100%"
         stop-color="#FFFFFF"
         stop-opacity="0.4"
         id="stop14" />
    </linearGradient>
    <linearGradient
       id="Gradient_4"
       gradientUnits="userSpaceOnUse"
       x1="40"
       y1="100"
       x2="40"
       y2="0"
       spreadMethod="pad">
      <stop
         offset="0%"
         stop-color="#FFFFFF"
         stop-opacity="0"
         id="stop17" />
      <stop
         offset="100%"
         stop-color="#FFFFFF"
         stop-opacity="0.4"
         id="stop19" />
    </linearGradient>
    <g
       id="background">
      <path
         fill="url(#background-gradient)"
         stroke="none"
         d=" M 100 13.35 Q 100 7.85 96.1 3.95 92.2 0 86.65 0 L 13.3 0 Q 7.8 0 3.9 3.95 0 7.85 0 13.35 L 0 86.7 Q 0 92.2 3.9 96.15 7.8 100 13.3 100 L 86.65 100 Q 92.2 100 96.1 96.15 100 92.2 100 86.7 L 100 13.35 Z"
         id="path22" />
    </g>
    <mask
       id="mask">
      <path
         fill="#FFFFFF"
         stroke="none"
         d=" M 100 13.35 Q 100 7.85 96.1 3.95 92.2 0 86.65 0 L 13.3 0 Q 7.8 0 3.9 3.95 0 7.85 0 13.35 L 0 86.7 Q 0 92.2 3.9 96.15 7.8 100 13.3 100 L 86.65 100 Q 92.2 100 96.1 96.15 100 92.2 100 86.7 L 100 13.35 Z"
         id="path25" />
    </mask>
    <g
       id="gloss-top">
      <path
         fill="url(#Gradient_2)"
         stroke="none"
         d=" M 100 42.9 L 100 13.35 Q 100 7.8 96.15 3.9 92.25 0 86.7 0 L 13.35 0 Q 7.85 0 3.9 3.9 0 7.8 0 13.35 L 0 42.9 Q 10.3 51.8 22.9 56.65 35.95 61.65 50 61.65 64.05 61.65 77.1 56.65 89.75 51.8 100 42.9 Z"
         id="path28" />
    </g>
    <g
       id="gloss-right">
      <path
         fill="url(#Gradient_3)"
         stroke="none"
         d=" M 96.1 3.9 Q 92.2 0 86.7 0 L 20.85 0 75.8 100 86.7 100 Q 92.2 100 96.1 96.1 100 92.2 100 86.65 L 100 13.35 Q 100 7.8 96.1 3.9 Z"
         id="path31" />
    </g>
    <g
       id="gloss-left">
      <path
         fill="url(#Gradient_4)"
         stroke="none"
         d=" M 3.9 3.95 Q 0 7.85 0 13.35 L 0 86.7 Q 0 92.2 3.9 96.15 7.8 100 13.3 100 L 24.2 100 79.15 0 13.3 0 Q 7.8 0 3.9 3.95 Z"
         id="path34" />
    </g>
    <linearGradient
       id="background-gradient"
       x1="0"
       y1="0"
       y2="1"
       x2="0">
      <stop
         stop-color="#6FDBFD"
         offset="0%"
         id="stop37" />
      <stop
         stop-color="#1A99FC"
         offset="100%"
         id="stop39" />
    </linearGradient>
    <g
       transform="scale(0.8656060606160667) translate(0.5059986114501953 9.570496559143066)"
       id="picture">
      <path
         d="M1.558 75.555s1.917-1.792 3.294-4.998c1.444-3.36 1.226-4.77 1.498-6.47.342-2.14 6.075-4.45 5.905-7.188-.17-2.74-7.27-2.74-4.706-29.44 0 0 2.73 12.49 14.71 14.89 0 0 3.25 1.2 4.79-.69 1.54-1.885 2.91-2.74 7.016-5.65 4.11-2.91 18.667-.456 19.826-1.26 1.063-.74-.45.176 1.205-.52 2.116-.894 2.33 1.95-2.975 5.202s.37 2.336 4.65-2.627c4.277-4.963 1.08 2.627 2.625 1.77 1.54-.854 11.294 1.713 10.27-21.906 0 0 .17-6.845 1.024-.855.86 5.99 1.77 17.83-5.986 24.474 0 0 0 40.39 25.16 34.23 25.156-6.165-7.36 8.87-29.268 9.24-21.31.36.513-4.794-32.52-11.127 0 0-4.23 7.5-14.377 10.61-10.828 3.322 3.427-5.43 3.25-7.357-.17-1.884 1.54-1.026-6.163-6.675 0 0-1.88 5.306-7.016 6.846 0 0-4.276 1.712-2.222-.512z"
         id="path42" />
    </g>
  </defs>
  <circle
     style="fill:#000000;fill-opacity:1"
     id="path4749"
     cx="50"
     cy="50"
     r="50"
     inkscape:export-xdpi="90"
     inkscape:export-ydpi="90" />
  <g
     transform="matrix(0.14044947,0,0,-0.14044947,-0.60268605,83.972129)"
     inkscape:label="ink_ext_XXXXXX"
     id="g4192"
     inkscape:export-xdpi="90"
     inkscape:export-ydpi="90">
    <g
       transform="scale(0.1,0.1)"
       id="g4194">
      <path
         inkscape:connector-curvature="0"
         id="path4196"
         style="fill:#ffffff;fill-opacity:1;fill-rule:evenodd;stroke:none"
         d="m 383.99488,3070.6132 c 213.9198,-603.481 616.29192,-994.3934 1191.64992,-1214.5695 727.1338,-278.1856 1690.0646,-329.9289 2245.7825,-527.0354 206.2497,259.7227 515.6153,416.3119 721.8738,676.017 159.3161,-85.1387 280.1447,-185.4306 366.4748,-293.0828 l -2.4888,5.004 c 1.9946,-3.133 3.8303,-6.1866 5.8248,-9.2314 60.3128,-76.1544 103.4249,-155.9272 130.5542,-236.6708 C 5402.0922,695.34524 4861.3951,289.9698 3942.8384,396.95398 3327.4519,468.64272 2539.0258,692.27753 1763.0523,1222.4504 2561.0098,727.56149 3336.0567,489.93753 3932.901,438.34688 4675.0379,374.08736 5139.9424,636.05707 5076.6643,1199.5043 5074.052,629.3277 4594.9562,438.77138 3941.8764,503.9964 2786.49,619.43354 1555.3199,1179.8855 693.38347,2176.9176 1495.1572,954.15016 3073.8451,306.92428 3947.4717,181.04863 5371.5121,-24.269231 6282.1524,1563.0138 5058.8723,2486.248 6007.0382,2988.5193 6283.9528,3744.7327 6101.5582,4674.7095 5910.603,4220.2012 5647.403,3833.3486 5207.8539,3632.0411 4733.7091,3414.9274 4226.681,3465.8853 3737.8684,3375.5838 c -140.9858,-26.0085 -259.8816,-788.1349 -96.7441,-1536.9262 -233.1406,777.4473 -101.1302,1488.6512 24.9759,1544.5337 -191.1935,90.3368 -260.3846,4.4656 -285.7842,-100.592 -95.7556,-396.3841 30.8272,-1006.7577 367.4986,-1819.9744 -372.8114,764.7564 -499.8178,1365.2985 -430.3178,1794.5308 -536.355,-192.1555 -970.7942,-606.0492 -1512.6651,-713.6397 -499.6943,-99.1446 -1019.7982,141.3212 -1420.83682,527.0972 l 0,0 z M 5190.1766,2297.4814 c 237.721,-358.7349 378.0538,-775.0733 299.9136,-1247.4441 136.4319,368.8665 131.7192,813.7021 -299.9136,1247.4441 l 0,0 z M 3570.1505,1471.5297 c -506.8164,343.5288 -592.8817,260.6318 -291.053,856.6288 -61.6454,174.337 -71.3975,354.9313 -82.5793,551.4112 -9.9021,-176.6316 13.344,-367.4986 51.9463,-550.2638 -209.0296,-395.7576 -238.2946,-531.2363 -91.537,-629.7366 70.5061,-47.3042 90.0897,-80.17 -25.6467,-54.9646 -649.9467,141.6124 -1435.6105,221.9324 -1985.8187,525.2173 461.4511,-338.1629 1415.5477,-448.8247 2165.4598,-604.6018 101.6775,-21.0927 168.3004,-43.5446 259.2286,-93.6905 l 0,0 z m 307.9359,55.8207 c 294.2919,569.2737 403.9387,527.3354 -105.7901,920.0393 -59.5538,167.0649 -62.9957,346.5295 -40.8704,531.6864 -2.277,-170.9569 11.3318,-337.9511 81.7938,-490.763 399.7642,-296.3923 425.7109,-397.0637 284.0985,-626.48 -39.9526,-64.752 -5.5688,-81.1937 55.0176,-40.0761 105.1458,71.3975 262.2556,190.205 395.7928,351.7364 345.4704,418.1211 926.173,488.7772 1229.758,981.42 -263.3941,-519.119 -841.9081,-571.4095 -1224.5069,-1033.2957 -165.4322,-199.7012 -351.4364,-353.0073 -490.6218,-432.0123 -102.7541,-58.2918 -132.6193,-87.4597 -184.6715,-162.255 l 0,0 z m -126.2386,1782.3959 c -78.6255,-21.4193 -145.3632,-320.1768 -138.2411,-686.7222 25.6467,354.6399 88.8807,582.503 164.2584,465.3016 34.8074,-54.0379 127.9154,132.1869 373.2792,170.0126 413.5143,63.7547 1069.2593,273.2256 1246.191,437.6076 -560.9161,-370.9317 -1209.9362,-267.9216 -1645.4875,-386.1996 l 0,0 z m -495.9611,-126.1768 c -9.1696,-168.1769 6.2219,-354.031 25.6554,-531.6334 -43.1473,175.4137 -44.5947,388.9972 -88.6511,371.5582 -17.6773,-6.9985 -22.8313,-39.0524 -43.5622,-74.354 -20.6956,-35.231 -99.0651,95.8527 -253.9774,-9.4079 -287.0639,-195.0855 -744.7581,-426.5581 -1028.2123,-420.7951 523.6199,91.0869 926.4113,495.308 1388.7476,664.6322 l 0,0 z m 494.0901,-1487.5922 c 86.0301,16.0534 173.128,72.8361 168.9624,148.9552 -9.2314,-29.574 -31.2596,-56.7297 -58.2212,-72.0418 55.6177,67.1437 49.3428,132.5487 -9.8403,183.2948 40.7116,-91.943 21.8958,-132.0369 -55.5736,-197.2036 14.7737,140.3415 46.9423,278.212 93.6375,411.3255 -101.245,-150.4378 -118.2692,-325.1102 -138.9648,-474.3301 l 0,0 z m -172.8719,-44.33 c -83.2765,-26.8115 -186.8867,-18.3303 -219.4701,50.6049 22.2047,-21.6399 54.488,-35.0016 85.474,-35.637 -80.8937,32.5834 -106.4785,93.0551 -78.599,165.9176 7.9605,-100.2566 43.5974,-126.5651 142.7685,-147.0224 -79.8346,116.3894 -173.7192,222.3295 -278.1767,317.1585 160.6929,-84.1149 258.8049,-229.6105 348.0033,-351.0216 l 0,0" />
    </g>
  </g>
</svg>
