<?xml version="1.0" encoding="UTF-8" standalone="no"?>
<svg
   xmlns:dc="http://purl.org/dc/elements/1.1/"
   xmlns:cc="http://creativecommons.org/ns#"
   xmlns:rdf="http://www.w3.org/1999/02/22-rdf-syntax-ns#"
   xmlns:svg="http://www.w3.org/2000/svg"
   xmlns="http://www.w3.org/2000/svg"
   xmlns:sodipodi="http://sodipodi.sourceforge.net/DTD/sodipodi-0.dtd"
   xmlns:inkscape="http://www.inkscape.org/namespaces/inkscape"
   version="1.1"
   width="512"
   height="512"
   viewBox="0 0 100 100"
   id="svg2"
   sodipodi:docname="ray_icon_2.svg"
   inkscape:version="0.91 r13725"
   inkscape:export-filename="D:\Git\notr\Resources\ray_icon_2.png"
   inkscape:export-xdpi="90"
   inkscape:export-ydpi="90">
  <defs
     id="defs8" />
  <sodipodi:namedview
     pagecolor="#ffffff"
     bordercolor="#666666"
     borderopacity="1"
     objecttolerance="10"
     gridtolerance="10"
     guidetolerance="10"
     inkscape:pageopacity="0"
     inkscape:pageshadow="2"
     inkscape:window-width="1920"
     inkscape:window-height="1137"
     id="namedview6"
     showgrid="false"
     inkscape:snap-smooth-nodes="true"
     inkscape:zoom="0.4609375"
     inkscape:cx="-239.72881"
     inkscape:cy="256"
     inkscape:window-x="-8"
     inkscape:window-y="-8"
     inkscape:window-maximized="1"
     inkscape:current-layer="svg2" />
  <metadata
     id="metadata56">
    <rdf:RDF>
      <cc:Work
         rdf:about="">
        <dc:format>image/svg+xml</dc:format>
        <dc:type
           rdf:resource="http://purl.org/dc/dcmitype/StillImage" />
        <dc:title />
      </cc:Work>
    </rdf:RDF>
  </metadata>
  <rect
     style="fill:#000000;fill-opacity:1"
     id="rect4136"
     width="91.862564"
     height="80.795647"
     x="3.9001465"
     y="3.950119" />
  <g
     id="background"
     style="fill:#41b1e1;fill-opacity:1">
    <path
       d="M 68.095703,0 C 49.32237,0 33.28075,6.741943 19.96875,20.224609 6.6567503,33.536609 0,49.57823 0,68.351562 L 0,443.9043 c 0,18.77333 6.6567503,34.90014 19.96875,48.38281 C 33.28075,505.42844 49.32237,512 68.095703,512 l 375.552737,0 c 18.944,0 35.07081,-6.57156 48.38281,-19.71289 C 505.34325,478.80444 512,462.67763 512,443.9043 L 512,68.351562 C 512,49.57823 505.34325,33.536609 492.03125,20.224609 478.71925,6.741943 462.59244,0 443.64844,0 Z M 345.00977,61.49414 c 0.66021,-0.152346 1.54576,2.588799 2.72851,10.884769 3.81144,26.5471 7.84454,79.021231 -26.5293,108.466791 0,0 0.001,179.00365 111.50782,151.70313 111.48895,-27.32268 -32.61879,39.31135 -129.71289,40.95117 -94.44385,1.59549 2.27404,-21.24526 -144.125,-49.3125 0,0 -18.74824,33.23827 -63.718754,47.02148 -47.988643,14.72278 15.188744,-24.06519 14.404294,-32.60546 -0.75342,-8.34971 6.82449,-4.54621 -27.31445,-29.58204 0,0 -8.331501,23.51472 -31.09375,30.33985 0,0 -18.950785,7.58702 -9.847656,-2.26953 l 0.04492,0.0586 c 0,0 8.494924,-7.94171 14.597656,-22.15039 6.399672,-14.8912 5.433198,-21.14154 6.638672,-28.67578 1.515714,-9.48427 26.925298,-19.72093 26.171875,-31.85547 C 88.008295,242.32534 56.540897,242.324 67.904297,123.99219 c 0,0 12.099165,55.35562 65.193363,65.99219 0,-10e-6 14.40338,5.3177 21.22851,-3.0586 6.82513,-8.35413 12.89636,-12.14223 31.09375,-25.03906 18.21512,-12.89684 82.73061,-2.02269 87.86719,-5.58594 4.71111,-3.27961 -1.993,0.77992 5.3418,-2.30469 9.37791,-3.96212 10.32569,8.64411 -13.18555,23.05664 -23.51125,14.41255 1.63887,10.35101 20.60742,-11.64453 18.95524,-21.99553 4.78747,11.64385 11.63477,7.84571 6.82513,-3.78485 50.05389,7.59116 45.51562,-97.085941 0,0 0.35614,-14.338674 1.8086,-14.673829 z"
       transform="scale(0.1953125,0.1953125)"
       id="path22"
       style="fill:#41b1e1;fill-opacity:1"
       sodipodi:nodetypes="scsscsscsscssscccsccccccccccccccccscccs" />
  </g>
</svg>
